<?xml version="1.0" encoding="UTF-8" standalone="no"?>
<svg
   enable-background="new 0 0 24 24"
   height="24"
   viewBox="0 0 24 24"
   width="24"
   fill="#e8eaed"
   version="1.1"
   id="svg1"
   sodipodi:docname="icon-256x256.svg"
   inkscape:export-filename="icon-128x128.png"
   inkscape:export-xdpi="512"
   inkscape:export-ydpi="512"
   xmlns:inkscape="http://www.inkscape.org/namespaces/inkscape"
   xmlns:sodipodi="http://sodipodi.sourceforge.net/DTD/sodipodi-0.dtd"
   xmlns="http://www.w3.org/2000/svg"
   xmlns:svg="http://www.w3.org/2000/svg">
  <defs
     id="defs1" />
  <sodipodi:namedview
     id="namedview1"
     pagecolor="#ffffff"
     bordercolor="#000000"
     borderopacity="0.25"
     inkscape:showpageshadow="2"
     inkscape:pageopacity="0.0"
     inkscape:pagecheckerboard="0"
     inkscape:deskcolor="#d1d1d1" />
  <rect
     fill="none"
     height="24"
     width="24"
     id="rect1"
     x="0"
     y="0" />
  <g
     id="g1"
     style="fill:#d45500">
    <path
       d="M 9.5,18 H 8 V 9 h 1.5 z m 3.25,0 h -1.5 V 9 h 1.5 z M 16,18 H 14.5 V 9 H 16 Z M 17,6 H 15 V 3 C 15,2.45 14.55,2 14,2 H 10 C 9.45,2 9,2.45 9,3 V 6 H 7 C 5.9,6 5,6.9 5,8 v 11 c 0,1.1 0.9,2 2,2 0,0.55 0.45,1 1,1 0.55,0 1,-0.45 1,-1 h 6 c 0,0.55 0.45,1 1,1 0.55,0 1,-0.45 1,-1 1.1,0 2,-0.9 2,-2 V 8 C 19,6.9 18.1,6 17,6 Z M 10.5,3.5 h 3 V 6 h -3 z M 17,19 H 7 V 8 h 10 z"
       id="path1"
       style="fill:#d45500" />
  </g>
</svg>
