<?xml version="1.0" encoding="UTF-8" standalone="no"?>
<svg
   enable-background="new 0 0 24 24"
   height="24px"
   viewBox="0 0 24 24"
   width="24px"
   fill="#e8eaed"
   version="1.1"
   id="svg1"
   sodipodi:docname="hostwph-accomodation-menu-icon.svg"
   inkscape:version="1.3.2 (091e20e, 2023-11-25, custom)"
   xmlns:inkscape="http://www.inkscape.org/namespaces/inkscape"
   xmlns:sodipodi="http://sodipodi.sourceforge.net/DTD/sodipodi-0.dtd"
   xmlns="http://www.w3.org/2000/svg"
   xmlns:svg="http://www.w3.org/2000/svg">
  <defs
     id="defs1" />
  <sodipodi:namedview
     id="namedview1"
     pagecolor="#ffffff"
     bordercolor="#000000"
     borderopacity="0.25"
     inkscape:showpageshadow="2"
     inkscape:pageopacity="0.0"
     inkscape:pagecheckerboard="0"
     inkscape:deskcolor="#d1d1d1"
     inkscape:zoom="35.625"
     inkscape:cx="12"
     inkscape:cy="12"
     inkscape:window-width="1920"
     inkscape:window-height="1111"
     inkscape:window-x="-9"
     inkscape:window-y="-9"
     inkscape:window-maximized="1"
     inkscape:current-layer="svg1" />
  <rect
     fill="none"
     height="24"
     width="24"
     id="rect1" />
  <path
     d="M12,5.5l6,4.5v9H6v-9L12,5.5 M12,3L4,9v12h16V9L12,3L12,3z M15,12h-3.5v3.5H8V11H7v7h1v-1.5h8V18h1v-4 C17,12.9,16.1,12,15,12z M9.75,12.5c-0.69,0-1.25,0.56-1.25,1.25C8.5,14.44,9.06,15,9.75,15S11,14.44,11,13.75 C11,13.06,10.44,12.5,9.75,12.5z"
     id="path1"
     style="fill:#d45500;fill-opacity:1" />
</svg>
